<svg width="7" height="10" viewBox="0 0 7 10" fill="none" xmlns="http://www.w3.org/2000/svg">
<path d="M0.96959 0.226914C0.828987 0.36756 0.75 0.558291 0.75 0.757164C0.75 0.956037 0.828987 1.14677 0.96959 1.28741L4.68209 4.99991L0.96959 8.71241C0.832971 8.85387 0.757375 9.04332 0.759084 9.23997C0.760793 9.43661 0.83967 9.62472 0.978726 9.76378C1.11778 9.90283 1.30589 9.98171 1.50254 9.98342C1.69919 9.98513 1.88864 9.90953 2.03009 9.77291L6.27284 5.53016C6.41344 5.38952 6.49243 5.19879 6.49243 4.99991C6.49243 4.80104 6.41344 4.61031 6.27284 4.46966L2.03009 0.226914C1.88944 0.0863108 1.69871 0.00732422 1.49984 0.00732422C1.30097 0.00732422 1.11024 0.0863108 0.96959 0.226914Z" fill="black"/>
</svg>
